# xmcd
# 
# Track frame offsets:
#     150
#     24200
#     45221
#     74364
#     91895
#     110079
#     131581
#     158086
#     171780
#     198671
#     224155
# 
# Disc length: 3265
# 
# Revision: 3
# Processed by: cddbd v1.5.2PL0 Copyright (c) Steve Scherf et al.
# Submitted via: fre:ac v1.1beta1pre5
# 
DISCID=970cbf0b
DTITLE=Chick Corea and Béla Fleck - The Enchantment
DYEAR=2007
DGENRE=Jazz
TTITLE0=Señorita
TTITLE1=Spectacle
TTITLE2=Joban Dna Nopia
TTITLE3=Mountain
TTITLE4=Children's Song #6
TTITLE5=A Strange Romance
TTITLE6=Menagerie
TTITLE7=Waltse for Abby
TTITLE8=Brazil
TTITLE9=The Enchantment
TTITLE10=Sunset Road
EXTD=
EXTT0=
EXTT1=
EXTT2=
EXTT3=
EXTT4=
EXTT5=
EXTT6=
EXTT7=
EXTT8=
EXTT9=
EXTT10=
PLAYORDER=
